<svg width="57" height="441" viewBox="0 0 57 441" fill="none" xmlns="http://www.w3.org/2000/svg">
<g clip-path="url(#clip0_51_478)">
<path d="M57 0V14.7C57 29.4 57 58.8 51.3 88.2C45.6 117.6 34.2 147 28.5 176.4C22.8 205.8 22.8 235.2 27.5636 264.6C32.1643 294 41.9357 323.4 45.6 352.8C49.2643 382.2 47.6357 411.6 47.5136 441C47.6357 470.4 49.2643 499.8 48.45 529.2C47.6357 558.6 43.5643 588 37.05 617.4C30.5357 646.8 20.7643 676.2 23.7364 705.6C26.4643 735 41.9357 764.4 48.45 793.8C54.9643 823.2 53.3357 852.6 47.5136 882C41.9357 911.4 32.1643 940.8 24.7136 970.2C17.1 999.6 11.4 1029 17.1 1058.4C22.8 1087.8 39.9 1117.2 43.6864 1146.6C47.6357 1176 37.8643 1205.4 35.1364 1234.8C32.1643 1264.2 36.2357 1293.6 38.9636 1323C41.9357 1352.4 43.5643 1381.8 44.6636 1411.2C45.6 1440.6 45.6 1470 44.6636 1499.4C43.5643 1528.8 41.9357 1558.2 41.8136 1587.6C41.9357 1617 43.5643 1646.4 38.9636 1675.8C34.2 1705.2 22.8 1734.6 21.8636 1764C20.7643 1793.4 30.5357 1822.8 32.2864 1852.2C34.2 1881.6 28.5 1911 25.65 1940.4C22.8 1969.8 22.8 1999.2 27.5636 2028.6C32.1643 2058 41.9357 2087.4 46.5364 2102.1L51.3 2116.8H0V2102.1C0 2087.4 0 2058 0 2028.6C0 1999.2 0 1969.8 0 1940.4C0 1911 0 1881.6 0 1852.2C0 1822.8 0 1793.4 0 1764C0 1734.6 0 1705.2 0 1675.8C0 1646.4 0 1617 0 1587.6C0 1558.2 0 1528.8 0 1499.4C0 1470 0 1440.6 0 1411.2C0 1381.8 0 1352.4 0 1323C0 1293.6 0 1264.2 0 1234.8C0 1205.4 0 1176 0 1146.6C0 1117.2 0 1087.8 0 1058.4C0 1029 0 999.6 0 970.2C0 940.8 0 911.4 0 882C0 852.6 0 823.2 0 793.8C0 764.4 0 735 0 705.6C0 676.2 0 646.8 0 617.4C0 588 0 558.6 0 529.2C0 499.8 0 470.4 0 441C0 411.6 0 382.2 0 352.8C0 323.4 0 294 0 264.6C0 235.2 0 205.8 0 176.4C0 147 0 117.6 0 88.2C0 58.8 0 29.4 0 14.7V0L57 0Z" fill="url(#paint0_linear_51_478)"/>
</g>
<defs>
<linearGradient id="paint0_linear_51_478" x1="0" y1="0" x2="57" y2="0" gradientUnits="userSpaceOnUse">
<stop stop-color="#0A1D35"/>
<stop offset="1" stop-color="#6CAED6"/>
</linearGradient>
<clipPath id="clip0_51_478">
<rect width="441" height="57" fill="white" transform="matrix(0 1 -1 0 57 0)"/>
</clipPath>
</defs>
</svg>
