<svg width="1279" height="140" viewBox="0 0 1279 140" fill="none" xmlns="http://www.w3.org/2000/svg">
<g clip-path="url(#clip0_26_110)">
<path d="M1279 140H1236.33C1193.67 140 1108.33 140 1023 126C937.667 112 852.333 84 767 70C681.667 56 596.333 56 511 67.7C425.667 79 340.333 103 255 112C169.667 121 84.3334 117 -1 116.7C-86.3334 117 -171.667 121 -257 119C-342.333 117 -427.667 107 -513 91C-598.333 75 -683.667 51 -769 58.3C-854.333 65 -939.667 103 -1025 119C-1110.33 135 -1195.67 131 -1281 116.7C-1366.33 103 -1451.67 79 -1537 60.7C-1622.33 42 -1707.67 28 -1793 42C-1878.33 56 -1963.67 98 -2049 107.3C-2134.33 117 -2219.67 93 -2305 86.3C-2390.33 79 -2475.67 89 -2561 95.7C-2646.33 103 -2731.67 107 -2817 109.7C-2902.33 112 -2987.67 112 -3073 109.7C-3158.33 107 -3243.67 103 -3329 102.7C-3414.33 103 -3499.67 107 -3585 95.7C-3670.33 84 -3755.67 56 -3841 53.7C-3926.33 51 -4011.67 75 -4097 79.3C-4182.33 84 -4267.67 70 -4353 63C-4438.33 56 -4523.67 56 -4609 67.7C-4694.33 79 -4779.67 103 -4822.33 114.3L-4865 126V0H-4822.33C-4779.67 0 -4694.33 0 -4609 0C-4523.67 0 -4438.33 0 -4353 0C-4267.67 0 -4182.33 0 -4097 0C-4011.67 0 -3926.33 0 -3841 0C-3755.67 0 -3670.33 0 -3585 0C-3499.67 0 -3414.33 0 -3329 0C-3243.67 0 -3158.33 0 -3073 0C-2987.67 0 -2902.33 0 -2817 0C-2731.67 0 -2646.33 0 -2561 0C-2475.67 0 -2390.33 0 -2305 0C-2219.67 0 -2134.33 0 -2049 0C-1963.67 0 -1878.33 0 -1793 0C-1707.67 0 -1622.33 0 -1537 0C-1451.67 0 -1366.33 0 -1281 0C-1195.67 0 -1110.33 0 -1025 0C-939.667 0 -854.333 0 -769 0C-683.667 0 -598.333 0 -513 0C-427.667 0 -342.333 0 -257 0C-171.667 0 -86.3334 0 -1 0C84.3334 0 169.667 0 255 0C340.333 0 425.667 0 511 0C596.333 0 681.667 0 767 0C852.333 0 937.667 0 1023 0C1108.33 0 1193.67 0 1236.33 0H1279V140Z" fill="url(#paint0_linear_26_110)"/>
</g>
<defs>
<linearGradient id="paint0_linear_26_110" x1="1279" y1="0" x2="1279" y2="140" gradientUnits="userSpaceOnUse">
<stop stop-color="#0A1D35"/>
<stop offset="1" stop-color="#6CAED6"/>
</linearGradient>
<clipPath id="clip0_26_110">
<rect width="1280" height="140" fill="white" transform="matrix(-1 0 0 -1 1279 140)"/>
</clipPath>
</defs>
</svg>
